HIERARCHY
ROOT Hips
{
  OFFSET 34.0906 98.8318 78.6669
  CHANNELS 6 Xposition Yposition Zposition Zrotation Xrotation Yrotation
  JOINT spine
  {
    OFFSET 0 8.81704 0.507024
    CHANNELS 3 Zrotation Xrotation Yrotation
    JOINT spine1
    {
      OFFSET 0 10.7766 0
      CHANNELS 3 Zrotation Xrotation Yrotation
      JOINT spine2
      {
        OFFSET 0 10.3259 0
        CHANNELS 3 Zrotation Xrotation Yrotation
        JOINT Neck
        {
          OFFSET 0 26.511 1.26395
          CHANNELS 3 Zrotation Xrotation Yrotation
          JOINT Head
          {
            OFFSET 0 8.00966 0
            CHANNELS 3 Zrotation Xrotation Yrotation
            End Site
            {
              OFFSET 0 19.3879 -6.39386
            }
          }
        }
        JOINT RightShoulder
        {
          OFFSET -4.34795 11.1512 -0.605422
          CHANNELS 3 Zrotation Xrotation Yrotation
          JOINT RightArm
          {
            OFFSET 0 14.6258 0
            CHANNELS 3 Zrotation Xrotation Yrotation
            JOINT RightArmRoll
            {
              OFFSET 0 7.3834 0
              CHANNELS 3 Zrotation Xrotation Yrotation
              JOINT RightForeArm
              {
                OFFSET 0 21.5052 0
                CHANNELS 3 Zrotation Xrotation Yrotation
                JOINT RightForeArmRoll
                {
                  OFFSET 0 8.28532 0
                  CHANNELS 3 Zrotation Xrotation Yrotation
                  JOINT RightHand
                  {
                    OFFSET 0 16.6268 0
                    CHANNELS 3 Zrotation Xrotation Yrotation
                    End Site
                    {
                      OFFSET 0 0 0
                    }
                  }
                }
              }
            }
          }
        }
        JOINT LeftShoulder
        {
          OFFSET 4.34795 11.1512 -0.605422
          CHANNELS 3 Zrotation Xrotation Yrotation
          JOINT LeftArm
          {
            OFFSET 0 14.6258 0
            CHANNELS 3 Zrotation Xrotation Yrotation
            JOINT LeftArmRoll
            {
              OFFSET 0 7.3834 0
              CHANNELS 3 Zrotation Xrotation Yrotation
              JOINT LeftForeArm
              {
                OFFSET 0 21.5052 0
                CHANNELS 3 Zrotation Xrotation Yrotation
                JOINT LeftForeArmRoll
                {
                  OFFSET 0 8.28532 0
                  CHANNELS 3 Zrotation Xrotation Yrotation
                  JOINT LeftHand
                  {
                    OFFSET 0 16.6268 0
                    CHANNELS 3 Zrotation Xrotation Yrotation
                    End Site
                    {
                      OFFSET 0 0 0
                    }
                  }
                }
              }
            }
          }
        }
      }
    }
  }
  JOINT RightUpLeg
  {
    OFFSET -7.8151 -1.43309 -1.20217
    CHANNELS 3 Zrotation Xrotation Yrotation
    JOINT RightUpLegRoll
    {
      OFFSET 0 19.4959 0
      CHANNELS 3 Zrotation Xrotation Yrotation
      JOINT RightLeg
      {
        OFFSET 0 -24.1427 0
        CHANNELS 3 Zrotation Xrotation Yrotation
        JOINT RightLegRoll
        {
          OFFSET 0 24.2217 0
          CHANNELS 3 Zrotation Xrotation Yrotation
          JOINT RightFoot
          {
            OFFSET 0 20.1605 0
            CHANNELS 3 Zrotation Xrotation Yrotation
            JOINT RightToeBase
            {
              OFFSET 0 16.8532 0
              CHANNELS 3 Zrotation Xrotation Yrotation
              End Site
              {
                OFFSET 0.00714343 8.16186 -0.940781
              }
            }
          }
        }
      }
    }
  }
  JOINT LeftUpLeg
  {
    OFFSET 7.8151 -1.43309 -1.20217
    CHANNELS 3 Zrotation Xrotation Yrotation
    JOINT LeftUpLegRoll
    {
      OFFSET 0 19.496 0
      CHANNELS 3 Zrotation Xrotation Yrotation
      JOINT LeftLeg
      {
        OFFSET 0 24.1426 0
        CHANNELS 3 Zrotation Xrotation Yrotation
        JOINT LeftLegRoll
        {
          OFFSET 0 24.4456 0
          CHANNELS 3 Zrotation Xrotation Yrotation
          JOINT LeftFoot
          {
            OFFSET 0 19.9366 0
            CHANNELS 3 Zrotation Xrotation Yrotation
            JOINT LeftToeBase
            {
              OFFSET 0 16.8532 0
              CHANNELS 3 Zrotation Xrotation Yrotation
              End Site
              {
                OFFSET -0.0320138 8.16187 -0.94078
              }
            }
          }
        }
      }
    }
  }
}
MOTION
Frames: 13
Frame Time: 0.00208333
51.3512 100.88 17.5466 -0.0043084 0.00352424 -0.012172 1.05913e-09 -2.48077 4.53291e-09 -4.28435e-10 -0.958717 -9.78081e-10 2.00293e-09 0.686358 5.20699e-10 0.0278914 19.1083 -0.0107143 -0.00390313 2.01064 -0.00879655 34.494 -11.2203 -7.28085 50.1402 22.8214 50.9765 1.69405e-05 6.64099e-06 3.38779e-07 -2.9544 1.40684 0.0117277 1.22457e-05 1.05363e-06 -3.00358 8.02893 -4.95145 0.69771 -40.6007 -11.6015 7.5306 -53.6465 17.6013 -43.9996 3.46516e-06 1.2433e-06 2.95205e-06 4.30319 2.29853 0.906626 4.86253e-07 3.06627e-07 2.99999 -8.02886 -4.95143 -0.697674 177.65 1.53928 0.0871042 180 7.01549e-15 178.931 177.821 6.50913 179.768 1.36169e-06 -1.87513e-07 0.0918061 -18.9459 68.2589 19.752 8.13373 25.2328 -3.48656 -176.761 1.30887 2.17153 4.54188e-06 -4.6773e-06 -1.06781 -2.30598 -6.29273 0.135374 -6.58399e-07 -4.47814e-06 -0.0888355 19.0328 68.3549 -19.8304 -8.1277 25.2331 3.48399 
51.3577 100.879 17.5363 -0.00458108 0.00481066 -0.012485 7.344e-10 -2.48077 4.86403e-09 -3.06687e-10 -0.958717 -7.02457e-10 2.13261e-09 0.686358 1.0717e-10 0.0311737 19.1053 -0.0122721 -0.00494403 2.00767 -0.00955037 34.4927 -11.2215 -7.27966 50.1373 22.8195 50.9788 1.69405e-05 6.64099e-06 3.38779e-07 -2.95553 1.40845 0.0118686 1.22457e-05 1.05363e-06 -3.00358 8.02893 -4.95145 0.69771 -40.6004 -11.603 7.52966 -53.6489 17.6021 -44.0006 3.46516e-06 1.2433e-06 2.95205e-06 4.30479 2.29722 0.906671 4.86253e-07 3.06627e-07 2.99999 -8.02886 -4.95143 -0.697674 177.651 1.54406 0.0858345 180 7.01549e-15 178.931 177.823 6.51518 179.768 1.36169e-06 -1.87513e-07 0.0917828 -18.9469 68.2601 19.7531 8.13373 25.2328 -3.48656 -176.761 1.31096 2.17174 4.54188e-06 -4.6773e-06 -1.06781 -2.30564 -6.29367 0.135267 -6.58399e-07 -4.47814e-06 -0.0888353 19.0324 68.3545 -19.83 -8.1277 25.2331 3.48399 
51.3567 100.879 17.538 -0.00493403 0.00602147 -0.0127934 4.14141e-10 -2.48077 5.13311e-09 -1.86103e-10 -0.958717 -4.46964e-10 2.2598e-09 0.686358 -2.64626e-10 0.0347831 19.1024 -0.0137535 -0.00632539 2.00461 -0.0102396 34.4914 -11.2227 -7.27859 50.1346 22.8176 50.9811 1.69405e-05 6.64099e-06 3.38779e-07 -2.95667 1.41 0.0120071 1.22457e-05 1.05363e-06 -3.00358 8.02893 -4.95145 0.69771 -40.5998 -11.6045 7.52888 -53.6516 17.6028 -44.0012 3.46516e-06 1.2433e-06 2.95205e-06 4.30612 2.29622 0.906698 4.86253e-07 3.06627e-07 2.99999 -8.02886 -4.95143 -0.697674 177.651 1.5482 0.0845715 180 7.01549e-15 178.931 177.825 6.52016 179.768 1.36169e-06 -1.87513e-07 0.0917594 -18.9476 68.2609 19.7539 8.13373 25.2328 -3.48656 -176.76 1.31295 2.17183 4.54188e-06 -4.6773e-06 -1.06781 -2.30528 -6.29459 0.135169 -6.58399e-07 -4.47814e-06 -0.0888352 19.032 68.354 -19.8295 -8.1277 25.2331 3.48399 
51.3524 100.883 17.5465 -0.00539034 0.00710208 -0.0131265 1.00417e-10 -2.48077 5.32261e-09 -6.51332e-11 -0.958717 -2.15917e-10 2.38057e-09 0.686358 -5.85252e-10 0.0387665 19.0996 -0.0151186 -0.00809938 2.00146 -0.010851 34.4902 -11.2237 -7.27764 50.1319 22.8158 50.9834 1.69405e-05 6.64099e-06 3.38779e-07 -2.95783 1.41143 0.01214 1.22457e-05 1.05363e-06 -3.00358 8.02893 -4.95145 0.69771 -40.5989 -11.6059 7.5283 -53.6546 17.6032 -44.0013 3.46516e-06 1.2433e-06 2.95205e-06 4.30714 2.29561 0.906702 4.86253e-07 3.06627e-07 2.99999 -8.02886 -4.95143 -0.697674 177.652 1.55151 0.0833132 180 7.01549e-15 178.931 177.826 6.52387 179.768 1.36169e-06 -1.87513e-07 0.0917359 -18.9478 68.2612 19.7541 8.13373 25.2328 -3.48656 -176.759 1.31474 2.17174 4.54188e-06 -4.6773e-06 -1.06781 -2.3049 -6.29544 0.13508 -6.58399e-07 -4.47814e-06 -0.088835 19.0316 68.3536 -19.8291 -8.1277 25.2331 3.48399 
51.3546 100.885 17.545 -0.00597311 0.00799787 -0.0135138 -2.04709e-10 -2.48077 5.41499e-09 5.77734e-11 -0.958717 -1.36326e-11 2.49102e-09 0.686358 -8.45269e-10 0.0431706 19.0971 -0.0163273 -0.0103182 1.99823 -0.0113715 34.489 -11.2245 -7.27682 50.1293 22.814 50.9857 1.69405e-05 6.64099e-06 3.38779e-07 -2.95901 1.41268 0.0122643 1.22457e-05 1.05363e-06 -3.00358 8.02893 -4.95145 0.69771 -40.5977 -11.6071 7.52794 -53.6579 17.6033 -44.001 3.46516e-06 1.2433e-06 2.95205e-06 4.30781 2.29544 0.906681 4.86253e-07 3.06627e-07 2.99999 -8.02886 -4.95143 -0.697674 177.654 1.5538 0.0820575 180 7.01549e-15 178.931 177.828 6.52602 179.767 1.36169e-06 -1.87513e-07 0.0917124 -18.9476 68.2608 19.7538 8.13373 25.2328 -3.48656 -176.758 1.31623 2.17146 4.54188e-06 -4.6773e-06 -1.06781 -2.3045 -6.29617 0.135003 -6.58399e-07 -4.47814e-06 -0.0888348 19.0313 68.3532 -19.8288 -8.1277 25.2331 3.48399 
51.3531 100.88 17.5446 -0.00670545 0.00865424 -0.0139847 -4.99173e-10 -2.48077 5.39271e-09 1.84167e-10 -0.958717 1.55576e-10 2.58723e-09 0.686358 -1.03524e-09 0.0480425 19.0948 -0.0173394 -0.0130339 1.99494 -0.011788 34.4879 -11.225 -7.27613 50.1268 22.8123 50.988 1.69405e-05 6.64099e-06 3.38779e-07 -2.96022 1.41368 0.0123769 1.22457e-05 1.05363e-06 -3.00358 8.02893 -4.95145 0.69771 -40.596 -11.6081 7.52785 -53.6616 17.6029 -44 3.46516e-06 1.2433e-06 2.95205e-06 4.30808 2.29579 0.906629 4.86253e-07 3.06627e-07 2.99999 -8.02886 -4.95143 -0.697674 177.655 1.5549 0.0808024 180 7.01549e-15 178.931 177.829 6.52639 179.767 1.36169e-06 -1.87513e-07 0.0916888 -18.9467 68.2598 19.7529 8.13373 25.2328 -3.48656 -176.757 1.31732 2.17093 4.54188e-06 -4.6773e-06 -1.06782 -2.30409 -6.29673 0.134939 -6.58399e-07 -4.47814e-06 -0.0888347 19.0309 68.3528 -19.8284 -8.1277 25.2331 3.48399 
51.3518 100.882 17.5457 -0.00776937 0.00940175 -0.0143812 4.13813e-05 -2.48082 -4.09795e-05 8.12248e-05 -0.958814 -8.55718e-05 8.22677e-05 0.686261 -8.69497e-05 0.0536949 19.093 -0.0182075 -0.0167496 1.99104 -0.012149 34.4869 -11.2253 -7.27555 50.1244 22.8106 50.9904 1.69405e-05 6.64099e-06 3.38779e-07 -2.96155 1.41453 0.0124857 1.22457e-05 1.05363e-06 -3.00358 8.02893 -4.95145 0.69771 -40.5938 -11.6091 7.52815 -53.6659 17.6022 -43.9982 3.46516e-06 1.2433e-06 2.95205e-06 4.30793 2.29675 0.906542 4.86253e-07 3.06627e-07 2.99999 -8.02886 -4.95143 -0.697674 177.657 1.55503 0.079223 180 7.01549e-15 178.931 177.83 6.52471 179.767 1.36169e-06 -1.87513e-07 0.0916651 -18.9451 68.258 19.7512 8.13373 25.2328 -3.48656 -176.755 1.31864 2.17 4.54188e-06 -4.6773e-06 -1.06782 -2.30364 -6.2975 0.13488 -6.58399e-07 -4.47814e-06 -0.0888345 19.0307 68.3526 -19.8282 -8.1277 25.2331 3.48399 
51.355 100.879 17.5375 -0.00927167 0.0105459 -0.0145532 0.000154495 -2.48095 -0.000153008 0.000303243 -0.959078 -0.000319475 0.000307131 0.685997 -0.000324616 0.0603034 19.0916 -0.0190163 -0.0217739 1.98614 -0.0125056 34.4858 -11.2255 -7.27507 50.1223 22.809 50.993 1.69405e-05 6.64099e-06 3.38779e-07 -2.96307 1.41541 0.0126 1.22457e-05 1.05363e-06 -3.00358 8.02893 -4.95145 0.69771 -40.5908 -11.6103 7.52892 -53.6711 17.6014 -43.9958 3.46516e-06 1.2433e-06 2.95205e-06 4.30737 2.29831 0.90642 4.86253e-07 3.06627e-07 2.99999 -8.02886 -4.95143 -0.697674 177.66 1.5546 0.0770836 180 7.01549e-15 178.931 177.831 6.52111 179.766 1.36169e-06 -1.87513e-07 0.0916414 -18.9429 68.2554 19.7488 8.13373 25.2328 -3.48656 -176.752 1.32079 2.16863 4.54188e-06 -4.6773e-06 -1.06782 -2.30313 -6.29884 0.134818 -6.58399e-07 -4.47814e-06 -0.0888343 19.0306 68.3524 -19.828 -8.1277 25.2331 3.48399 
51.3515 100.878 17.5392 -0.0111226 0.0119946 -0.0145424 0.000322786 -2.48114 -0.000319685 0.000633561 -0.959472 -0.00066748 0.000641681 0.685604 -0.000678219 0.0677084 19.0906 -0.0197741 -0.0278673 1.98044 -0.0128478 34.4848 -11.2257 -7.27468 50.1204 22.8075 50.9958 1.69405e-05 6.64099e-06 3.38779e-07 -2.96473 1.41629 0.0127188 1.22457e-05 1.05363e-06 -3.00358 8.02893 -4.95145 0.69771 -40.5873 -11.6117 7.53006 -53.677 17.6004 -43.9927 3.46516e-06 1.2433e-06 2.95205e-06 4.30645 2.30037 0.906268 4.86253e-07 3.06627e-07 2.99999 -8.02886 -4.95143 -0.697674 177.664 1.55364 0.0745155 180 7.01549e-15 178.931 177.832 6.51589 179.765 1.36169e-06 -1.87513e-07 0.0916175 -18.9401 68.2522 19.7458 8.13373 25.2328 -3.48656 -176.748 1.32357 2.16689 4.54188e-06 -4.6773e-06 -1.06782 -2.30257 -6.30062 0.134754 -6.58399e-07 -4.47814e-06 -0.0888342 19.0305 68.3524 -19.828 -8.1277 25.2331 3.48399 
51.3568 100.89 17.5029 -0.0132325 0.0136555 -0.0143905 0.000529701 -2.48139 -0.000524617 0.00103968 -0.959955 -0.00109536 0.00105301 0.68512 -0.00111298 0.0757505 19.0898 -0.0204894 -0.0347903 1.97415 -0.0131658 34.4837 -11.2259 -7.27439 50.1187 22.806 50.9985 1.69405e-05 6.64099e-06 3.38779e-07 -2.96649 1.4172 0.0128414 1.22457e-05 1.05363e-06 -3.00358 8.02893 -4.95145 0.69771 -40.5834 -11.6133 7.53152 -53.6834 17.5994 -43.989 3.46516e-06 1.2433e-06 2.95205e-06 4.30522 2.30286 0.906092 4.86253e-07 3.06627e-07 2.99999 -8.02886 -4.95143 -0.697674 177.668 1.55221 0.0716502 180 7.01549e-15 178.931 177.833 6.5093 179.765 1.36169e-06 -1.87513e-07 0.0915936 -18.9369 68.2484 19.7423 8.13373 25.2328 -3.48656 -176.744 1.3268 2.16488 4.54188e-06 -4.6773e-06 -1.06782 -2.30196 -6.30273 0.13469 -6.58399e-07 -4.47814e-06 -0.088834 19.0306 68.3525 -19.8281 -8.1277 25.2331 3.48399 
51.3547 100.886 17.5068 -0.0155116 0.0154365 -0.0141391 0.000758684 -2.48165 -0.000751409 0.00148912 -0.96049 -0.00156887 0.0015082 0.684585 -0.00159411 0.0842702 19.0892 -0.0211707 -0.0423035 1.96747 -0.0134499 34.4826 -11.226 -7.27419 50.1171 22.8045 51.0014 1.69405e-05 6.64099e-06 3.38779e-07 -2.9683 1.41813 0.0129666 1.22457e-05 1.05363e-06 -3.00358 8.02893 -4.95145 0.69771 -40.5791 -11.615 7.5332 -53.6903 17.5984 -43.9849 3.46516e-06 1.2433e-06 2.95205e-06 4.30373 2.30568 0.905896 4.86253e-07 3.06627e-07 2.99999 -8.02886 -4.95143 -0.697674 177.672 1.55034 0.068619 180 7.01549e-15 178.931 177.834 6.50161 179.764 1.36169e-06 -1.87513e-07 0.0915696 -18.9333 68.2442 19.7383 8.13373 25.2328 -3.48656 -176.74 1.33029 2.16268 4.54188e-06 -4.6773e-06 -1.06782 -2.30131 -6.30504 0.134629 -6.58399e-07 -4.47814e-06 -0.0888339 19.0307 68.3526 -19.8282 -8.1277 25.2331 3.48399 
51.3485 100.876 17.5518 -0.01787 0.0172455 -0.0138299 0.000993184 -2.48193 -0.000983666 0.00194938 -0.961038 -0.0020538 0.00197435 0.684037 -0.00208684 0.093108 19.0886 -0.0218262 -0.0501674 1.96062 -0.0136902 34.4815 -11.2262 -7.2741 50.1157 22.8031 51.0041 1.69405e-05 6.64099e-06 3.38779e-07 -2.97012 1.41909 0.0130938 1.22457e-05 1.05363e-06 -3.00358 8.02893 -4.95145 0.69771 -40.5745 -11.6167 7.53503 -53.6974 17.5973 -43.9804 3.46516e-06 1.2433e-06 2.95205e-06 4.30202 2.30875 0.905686 4.86253e-07 3.06627e-07 2.99999 -8.02886 -4.95143 -0.697674 177.677 1.54807 0.0655534 180 7.01549e-15 178.931 177.835 6.49309 179.763 1.36169e-06 -1.87513e-07 0.0915456 -18.9294 68.2397 19.7341 8.13373 25.2328 -3.48656 -176.736 1.33387 2.16037 4.54188e-06 -4.6773e-06 -1.06783 -2.30063 -6.30743 0.134572 -6.58399e-07 -4.47814e-06 -0.0888337 19.0309 68.3528 -19.8283 -8.1277 25.2331 3.48399 
51.3511 100.883 17.5368 -0.0202182 0.0189902 -0.0135045 0.00121665 -2.48219 -0.00120499 0.00238797 -0.96156 -0.00251591 0.00241856 0.683515 -0.00255638 0.102104 19.0879 -0.0224645 -0.0581424 1.95379 -0.0138768 34.4804 -11.2263 -7.27412 50.1144 22.8016 51.0068 1.69405e-05 6.64099e-06 3.38779e-07 -2.97192 1.42007 0.0132218 1.22457e-05 1.05363e-06 -3.00358 8.02893 -4.95145 0.69771 -40.5699 -11.6185 7.53693 -53.7047 17.5962 -43.9757 3.46516e-06 1.2433e-06 2.95205e-06 4.30013 2.31199 0.905467 4.86253e-07 3.06627e-07 2.99999 -8.02886 -4.95143 -0.697674 177.681 1.54544 0.0625848 180 7.01549e-15 178.931 177.836 6.48406 179.762 1.36169e-06 -1.87513e-07 0.0915214 -18.9253 68.2349 19.7297 8.13373 25.2328 -3.48656 -176.731 1.33735 2.15805 4.54188e-06 -4.6773e-06 -1.06783 -2.29992 -6.30979 0.134521 -6.58399e-07 -4.47814e-06 -0.0888335 19.031 68.353 -19.8285 -8.1277 25.2331 3.48399 
